<svg width="135" height="42" viewBox="0 0 135 42" fill="none" xmlns="http://www.w3.org/2000/svg">
<path d="M60.2429 24V13.8L56.5469 21.216H54.4349L50.7389 13.8V24H46.8029V6.96H51.0749L55.4909 15.864L59.9309 6.96H64.1789V24H60.2429ZM72.9993 24.24C71.9433 24.24 70.9913 24.072 70.1433 23.736C69.3113 23.384 68.5993 22.912 68.0073 22.32C67.4313 21.728 66.9913 21.048 66.6873 20.28C66.3833 19.496 66.2313 18.68 66.2313 17.832C66.2313 16.92 66.3833 16.064 66.6873 15.264C66.9913 14.448 67.4313 13.736 68.0073 13.128C68.5833 12.52 69.2873 12.04 70.1193 11.688C70.9673 11.336 71.9273 11.16 72.9993 11.16C74.0713 11.16 75.0233 11.336 75.8553 11.688C76.6873 12.04 77.3913 12.52 77.9673 13.128C78.5433 13.72 78.9753 14.408 79.2633 15.192C79.5673 15.976 79.7193 16.8 79.7193 17.664C79.7193 17.888 79.7113 18.112 79.6953 18.336C79.6793 18.544 79.6553 18.728 79.6233 18.888H70.3113C70.3753 19.736 70.6793 20.384 71.2233 20.832C71.7833 21.264 72.4153 21.48 73.1193 21.48C73.6793 21.48 74.2153 21.344 74.7273 21.072C75.2553 20.8 75.6073 20.432 75.7833 19.968L79.0473 20.88C78.5513 21.872 77.7833 22.68 76.7433 23.304C75.7033 23.928 74.4553 24.24 72.9993 24.24ZM75.6633 16.512C75.5833 15.712 75.2953 15.08 74.7993 14.616C74.3033 14.152 73.6873 13.92 72.9513 13.92C72.1993 13.92 71.5753 14.16 71.0793 14.64C70.5993 15.104 70.3193 15.728 70.2393 16.512H75.6633ZM93.6036 24H89.7636V16.92C89.7636 16.088 89.6036 15.488 89.2836 15.12C88.9796 14.736 88.5716 14.544 88.0596 14.544C87.7876 14.544 87.5156 14.6 87.2436 14.712C86.9716 14.824 86.7076 14.984 86.4516 15.192C86.1956 15.384 85.9636 15.616 85.7556 15.888C85.5636 16.16 85.4116 16.456 85.2996 16.776V24H81.4596V11.4H84.9156V13.512C85.3796 12.76 86.0356 12.184 86.8836 11.784C87.7316 11.368 88.7076 11.16 89.8116 11.16C90.6276 11.16 91.2836 11.312 91.7796 11.616C92.2756 11.904 92.6596 12.288 92.9316 12.768C93.2036 13.232 93.3796 13.744 93.4596 14.304C93.5556 14.864 93.6036 15.408 93.6036 15.936V24ZM104.198 23.328C103.67 23.552 103.062 23.76 102.374 23.952C101.702 24.144 101.022 24.24 100.334 24.24C99.8538 24.24 99.3978 24.176 98.9658 24.048C98.5498 23.936 98.1818 23.752 97.8618 23.496C97.5418 23.224 97.2858 22.872 97.0938 22.44C96.9178 22.008 96.8298 21.488 96.8298 20.88V14.304H95.2218V11.4H96.8298V7.392H100.67V11.4H103.238V14.304H100.67V19.56C100.67 19.976 100.774 20.28 100.982 20.472C101.19 20.648 101.454 20.736 101.774 20.736C102.062 20.736 102.358 20.688 102.662 20.592C102.966 20.496 103.23 20.392 103.454 20.28L104.198 23.328ZM111.413 24.24C110.357 24.24 109.405 24.072 108.557 23.736C107.725 23.384 107.013 22.912 106.421 22.32C105.845 21.728 105.405 21.048 105.101 20.28C104.797 19.496 104.645 18.68 104.645 17.832C104.645 16.92 104.797 16.064 105.101 15.264C105.405 14.448 105.845 13.736 106.421 13.128C106.997 12.52 107.701 12.04 108.533 11.688C109.381 11.336 110.341 11.16 111.413 11.16C112.485 11.16 113.437 11.336 114.269 11.688C115.101 12.04 115.805 12.52 116.381 13.128C116.957 13.72 117.389 14.408 117.677 15.192C117.981 15.976 118.133 16.8 118.133 17.664C118.133 17.888 118.125 18.112 118.109 18.336C118.093 18.544 118.069 18.728 118.037 18.888H108.725C108.789 19.736 109.093 20.384 109.637 20.832C110.197 21.264 110.829 21.48 111.533 21.48C112.093 21.48 112.629 21.344 113.141 21.072C113.669 20.8 114.021 20.432 114.197 19.968L117.461 20.88C116.965 21.872 116.197 22.68 115.157 23.304C114.117 23.928 112.869 24.24 111.413 24.24ZM114.077 16.512C113.997 15.712 113.709 15.08 113.213 14.616C112.717 14.152 112.101 13.92 111.365 13.92C110.613 13.92 109.989 14.16 109.493 14.64C109.013 15.104 108.733 15.728 108.653 16.512H114.077ZM127.866 14.688C126.938 14.704 126.098 14.856 125.346 15.144C124.594 15.432 124.05 15.864 123.714 16.44V24H119.874V11.4H123.402V13.944C123.834 13.096 124.386 12.432 125.058 11.952C125.746 11.472 126.474 11.224 127.242 11.208C127.418 11.208 127.546 11.208 127.626 11.208C127.706 11.208 127.786 11.216 127.866 11.232V14.688Z" fill="#F95D77"/>
<path d="M52.4548 36V31.75L50.9148 34.84H50.0348L48.4948 31.75V36H46.8548V28.9H48.6348L50.4748 32.61L52.3248 28.9H54.0948V36H52.4548ZM56.7695 36.1C56.5095 36.1 56.2662 36.06 56.0395 35.98C55.8195 35.8933 55.6295 35.7767 55.4695 35.63C55.3095 35.4767 55.1828 35.3 55.0895 35.1C54.9962 34.8933 54.9495 34.67 54.9495 34.43C54.9495 34.17 55.0028 33.9333 55.1095 33.72C55.2228 33.5067 55.3795 33.3233 55.5795 33.17C55.7795 33.0167 56.0162 32.8967 56.2895 32.81C56.5628 32.7233 56.8662 32.68 57.1995 32.68C57.4195 32.68 57.6328 32.7 57.8395 32.74C58.0462 32.7733 58.2262 32.8267 58.3795 32.9V32.66C58.3795 32.0533 58.0295 31.75 57.3295 31.75C57.0428 31.75 56.7695 31.8 56.5095 31.9C56.2495 31.9933 55.9762 32.1367 55.6895 32.33L55.2195 31.33C55.5662 31.1033 55.9262 30.9333 56.2995 30.82C56.6728 30.7067 57.0695 30.65 57.4895 30.65C58.2828 30.65 58.8962 30.8367 59.3295 31.21C59.7628 31.5833 59.9795 32.13 59.9795 32.85V34.2C59.9795 34.36 60.0028 34.4733 60.0495 34.54C60.1028 34.6 60.1928 34.6367 60.3195 34.65V36C60.1795 36.0333 60.0528 36.0533 59.9395 36.06C59.8262 36.0733 59.7228 36.08 59.6295 36.08C59.3295 36.08 59.1028 36.0233 58.9495 35.91C58.7962 35.79 58.6995 35.6233 58.6595 35.41L58.6295 35.17C58.3962 35.47 58.1162 35.7 57.7895 35.86C57.4695 36.02 57.1295 36.1 56.7695 36.1ZM57.2395 34.95C57.4128 34.95 57.5795 34.92 57.7395 34.86C57.9062 34.8 58.0428 34.72 58.1495 34.62C58.3028 34.5 58.3795 34.3733 58.3795 34.24V33.74C58.2395 33.6867 58.0862 33.6467 57.9195 33.62C57.7595 33.5867 57.6095 33.57 57.4695 33.57C57.1762 33.57 56.9328 33.6367 56.7395 33.77C56.5528 33.9033 56.4595 34.0767 56.4595 34.29C56.4595 34.4833 56.5328 34.6433 56.6795 34.77C56.8262 34.89 57.0128 34.95 57.2395 34.95ZM64.4689 32.12C64.0822 32.1267 63.7322 32.19 63.4189 32.31C63.1055 32.43 62.8789 32.61 62.7389 32.85V36H61.1389V30.75H62.6089V31.81C62.7889 31.4567 63.0189 31.18 63.2989 30.98C63.5855 30.78 63.8889 30.6767 64.2089 30.67C64.2822 30.67 64.3355 30.67 64.3689 30.67C64.4022 30.67 64.4355 30.6733 64.4689 30.68V32.12ZM68.6728 36L67.3028 33.89L66.7428 34.47V36H65.1428V28.7H66.7428V32.93L68.5128 30.75H70.2128L68.3228 33.01L70.3728 36H68.6728ZM73.0727 36.1C72.6327 36.1 72.236 36.03 71.8827 35.89C71.536 35.7433 71.2394 35.5467 70.9927 35.3C70.7527 35.0533 70.5694 34.77 70.4427 34.45C70.316 34.1233 70.2527 33.7833 70.2527 33.43C70.2527 33.05 70.316 32.6933 70.4427 32.36C70.5694 32.02 70.7527 31.7233 70.9927 31.47C71.2327 31.2167 71.526 31.0167 71.8727 30.87C72.226 30.7233 72.626 30.65 73.0727 30.65C73.5194 30.65 73.916 30.7233 74.2627 30.87C74.6094 31.0167 74.9027 31.2167 75.1427 31.47C75.3827 31.7167 75.5627 32.0033 75.6827 32.33C75.8094 32.6567 75.8727 33 75.8727 33.36C75.8727 33.4533 75.8694 33.5467 75.8627 33.64C75.856 33.7267 75.846 33.8033 75.8327 33.87H71.9527C71.9794 34.2233 72.106 34.4933 72.3327 34.68C72.566 34.86 72.8294 34.95 73.1227 34.95C73.356 34.95 73.5794 34.8933 73.7927 34.78C74.0127 34.6667 74.1594 34.5133 74.2327 34.32L75.5927 34.7C75.386 35.1133 75.066 35.45 74.6327 35.71C74.1994 35.97 73.6794 36.1 73.0727 36.1ZM74.1827 32.88C74.1494 32.5467 74.0294 32.2833 73.8227 32.09C73.616 31.8967 73.3594 31.8 73.0527 31.8C72.7394 31.8 72.4794 31.9 72.2727 32.1C72.0727 32.2933 71.956 32.5533 71.9227 32.88H74.1827ZM79.9588 35.72C79.7388 35.8133 79.4855 35.9 79.1988 35.98C78.9188 36.06 78.6355 36.1 78.3488 36.1C78.1488 36.1 77.9588 36.0733 77.7788 36.02C77.6055 35.9733 77.4521 35.8967 77.3188 35.79C77.1855 35.6767 77.0788 35.53 76.9988 35.35C76.9255 35.17 76.8888 34.9533 76.8888 34.7V31.96H76.2188V30.75H76.8888V29.08H78.4888V30.75H79.5588V31.96H78.4888V34.15C78.4888 34.3233 78.5321 34.45 78.6188 34.53C78.7055 34.6033 78.8155 34.64 78.9488 34.64C79.0688 34.64 79.1921 34.62 79.3188 34.58C79.4455 34.54 79.5555 34.4967 79.6488 34.45L79.9588 35.72ZM80.5822 36V30.75H82.1822V36H80.5822ZM80.5822 30.15V28.7H82.1822V30.15H80.5822ZM88.3375 36H86.7375V33.05C86.7375 32.7033 86.6709 32.4533 86.5375 32.3C86.4109 32.14 86.2409 32.06 86.0275 32.06C85.9142 32.06 85.8009 32.0833 85.6875 32.13C85.5742 32.1767 85.4642 32.2433 85.3575 32.33C85.2509 32.41 85.1542 32.5067 85.0675 32.62C84.9875 32.7333 84.9242 32.8567 84.8775 32.99V36H83.2775V30.75H84.7175V31.63C84.9109 31.3167 85.1842 31.0767 85.5375 30.91C85.8909 30.7367 86.2975 30.65 86.7575 30.65C87.0975 30.65 87.3709 30.7133 87.5775 30.84C87.7842 30.96 87.9442 31.12 88.0575 31.32C88.1709 31.5133 88.2442 31.7267 88.2775 31.96C88.3175 32.1933 88.3375 32.42 88.3375 32.64V36ZM91.4406 36.02C91.0939 36.02 90.7773 35.95 90.4906 35.81C90.2039 35.67 89.9573 35.48 89.7506 35.24C89.5506 35 89.3939 34.72 89.2806 34.4C89.1673 34.08 89.1106 33.7367 89.1106 33.37C89.1106 32.9833 89.1706 32.6267 89.2906 32.3C89.4106 31.9667 89.5773 31.68 89.7906 31.44C90.0039 31.1933 90.2606 31 90.5606 30.86C90.8606 30.72 91.1906 30.65 91.5506 30.65C91.9506 30.65 92.2973 30.7367 92.5906 30.91C92.8906 31.0767 93.1306 31.31 93.3106 31.61V30.75H94.7006V35.64C94.7006 36.04 94.6239 36.4 94.4706 36.72C94.3239 37.04 94.1173 37.31 93.8506 37.53C93.5839 37.7567 93.2639 37.93 92.8906 38.05C92.5173 38.17 92.1073 38.23 91.6606 38.23C91.0939 38.23 90.6106 38.14 90.2106 37.96C89.8106 37.78 89.4606 37.52 89.1606 37.18L90.0206 36.31C90.2139 36.53 90.4539 36.7033 90.7406 36.83C91.0273 36.9633 91.3339 37.03 91.6606 37.03C91.8539 37.03 92.0373 37.0033 92.2106 36.95C92.3839 36.8967 92.5373 36.8133 92.6706 36.7C92.8039 36.5933 92.9073 36.45 92.9806 36.27C93.0606 36.0967 93.1006 35.8867 93.1006 35.64V35.13C92.9406 35.4233 92.7106 35.6467 92.4106 35.8C92.1106 35.9467 91.7873 36.02 91.4406 36.02ZM91.9906 34.75C92.2373 34.75 92.4573 34.6833 92.6506 34.55C92.8439 34.41 92.9939 34.2333 93.1006 34.02V32.92C92.9939 32.64 92.8306 32.42 92.6106 32.26C92.3906 32.0933 92.1573 32.01 91.9106 32.01C91.7373 32.01 91.5773 32.05 91.4306 32.13C91.2906 32.2033 91.1673 32.3067 91.0606 32.44C90.9606 32.5667 90.8806 32.7167 90.8206 32.89C90.7673 33.0567 90.7406 33.23 90.7406 33.41C90.7406 33.6033 90.7706 33.7833 90.8306 33.95C90.8973 34.11 90.9873 34.25 91.1006 34.37C91.2139 34.49 91.3439 34.5833 91.4906 34.65C91.6439 34.7167 91.8106 34.75 91.9906 34.75ZM99.8786 28.9H101.359L103.949 36H102.269L101.719 34.41H99.5086L98.9686 36H97.2886L99.8786 28.9ZM101.449 33.28L100.619 30.77L99.7686 33.28H101.449ZM106.411 36.02C106.065 36.02 105.748 35.95 105.461 35.81C105.175 35.67 104.928 35.48 104.721 35.24C104.521 35 104.365 34.72 104.251 34.4C104.138 34.08 104.081 33.7367 104.081 33.37C104.081 32.9833 104.141 32.6267 104.261 32.3C104.381 31.9667 104.548 31.68 104.761 31.44C104.975 31.1933 105.231 31 105.531 30.86C105.831 30.72 106.161 30.65 106.521 30.65C106.921 30.65 107.268 30.7367 107.561 30.91C107.861 31.0767 108.101 31.31 108.281 31.61V30.75H109.671V35.64C109.671 36.04 109.595 36.4 109.441 36.72C109.295 37.04 109.088 37.31 108.821 37.53C108.555 37.7567 108.235 37.93 107.861 38.05C107.488 38.17 107.078 38.23 106.631 38.23C106.065 38.23 105.581 38.14 105.181 37.96C104.781 37.78 104.431 37.52 104.131 37.18L104.991 36.31C105.185 36.53 105.425 36.7033 105.711 36.83C105.998 36.9633 106.305 37.03 106.631 37.03C106.825 37.03 107.008 37.0033 107.181 36.95C107.355 36.8967 107.508 36.8133 107.641 36.7C107.775 36.5933 107.878 36.45 107.951 36.27C108.031 36.0967 108.071 35.8867 108.071 35.64V35.13C107.911 35.4233 107.681 35.6467 107.381 35.8C107.081 35.9467 106.758 36.02 106.411 36.02ZM106.961 34.75C107.208 34.75 107.428 34.6833 107.621 34.55C107.815 34.41 107.965 34.2333 108.071 34.02V32.92C107.965 32.64 107.801 32.42 107.581 32.26C107.361 32.0933 107.128 32.01 106.881 32.01C106.708 32.01 106.548 32.05 106.401 32.13C106.261 32.2033 106.138 32.3067 106.031 32.44C105.931 32.5667 105.851 32.7167 105.791 32.89C105.738 33.0567 105.711 33.23 105.711 33.41C105.711 33.6033 105.741 33.7833 105.801 33.95C105.868 34.11 105.958 34.25 106.071 34.37C106.185 34.49 106.315 34.5833 106.461 34.65C106.615 34.7167 106.781 34.75 106.961 34.75ZM113.278 36.1C112.838 36.1 112.441 36.03 112.088 35.89C111.741 35.7433 111.444 35.5467 111.198 35.3C110.958 35.0533 110.774 34.77 110.648 34.45C110.521 34.1233 110.458 33.7833 110.458 33.43C110.458 33.05 110.521 32.6933 110.648 32.36C110.774 32.02 110.958 31.7233 111.198 31.47C111.438 31.2167 111.731 31.0167 112.078 30.87C112.431 30.7233 112.831 30.65 113.278 30.65C113.724 30.65 114.121 30.7233 114.468 30.87C114.814 31.0167 115.108 31.2167 115.348 31.47C115.588 31.7167 115.768 32.0033 115.888 32.33C116.014 32.6567 116.078 33 116.078 33.36C116.078 33.4533 116.074 33.5467 116.068 33.64C116.061 33.7267 116.051 33.8033 116.038 33.87H112.158C112.184 34.2233 112.311 34.4933 112.538 34.68C112.771 34.86 113.034 34.95 113.328 34.95C113.561 34.95 113.784 34.8933 113.998 34.78C114.218 34.6667 114.364 34.5133 114.438 34.32L115.798 34.7C115.591 35.1133 115.271 35.45 114.838 35.71C114.404 35.97 113.884 36.1 113.278 36.1ZM114.388 32.88C114.354 32.5467 114.234 32.2833 114.028 32.09C113.821 31.8967 113.564 31.8 113.258 31.8C112.944 31.8 112.684 31.9 112.478 32.1C112.278 32.2933 112.161 32.5533 112.128 32.88H114.388ZM121.863 36H120.263V33.05C120.263 32.7033 120.196 32.4533 120.063 32.3C119.936 32.14 119.766 32.06 119.553 32.06C119.44 32.06 119.326 32.0833 119.213 32.13C119.1 32.1767 118.99 32.2433 118.883 32.33C118.776 32.41 118.68 32.5067 118.593 32.62C118.513 32.7333 118.45 32.8567 118.403 32.99V36H116.803V30.75H118.243V31.63C118.436 31.3167 118.71 31.0767 119.063 30.91C119.416 30.7367 119.823 30.65 120.283 30.65C120.623 30.65 120.896 30.7133 121.103 30.84C121.31 30.96 121.47 31.12 121.583 31.32C121.696 31.5133 121.77 31.7267 121.803 31.96C121.843 32.1933 121.863 32.42 121.863 32.64V36ZM122.616 33.37C122.616 33.01 122.679 32.6667 122.806 32.34C122.933 32.0067 123.116 31.7167 123.356 31.47C123.596 31.2167 123.889 31.0167 124.236 30.87C124.589 30.7233 124.989 30.65 125.436 30.65C126.043 30.65 126.553 30.78 126.966 31.04C127.379 31.2933 127.689 31.6267 127.896 32.04L126.336 32.51C126.129 32.1767 125.826 32.01 125.426 32.01C125.093 32.01 124.813 32.1333 124.586 32.38C124.366 32.6267 124.256 32.9567 124.256 33.37C124.256 33.5767 124.286 33.7667 124.346 33.94C124.406 34.1067 124.489 34.25 124.596 34.37C124.703 34.49 124.826 34.5833 124.966 34.65C125.113 34.7167 125.266 34.75 125.426 34.75C125.626 34.75 125.809 34.7033 125.976 34.61C126.143 34.51 126.266 34.3833 126.346 34.23L127.906 34.71C127.713 35.1167 127.403 35.45 126.976 35.71C126.556 35.97 126.043 36.1 125.436 36.1C124.996 36.1 124.599 36.0267 124.246 35.88C123.899 35.7267 123.603 35.5267 123.356 35.28C123.116 35.0267 122.933 34.7367 122.806 34.41C122.679 34.0767 122.616 33.73 122.616 33.37ZM128.601 36.79C128.734 36.8367 128.857 36.87 128.971 36.89C129.091 36.91 129.197 36.92 129.291 36.92C129.484 36.92 129.634 36.8533 129.741 36.72C129.847 36.5867 129.944 36.3467 130.031 36L128.031 30.75H129.681L130.901 34.63L131.951 30.75H133.451L131.451 36.85C131.311 37.2833 131.061 37.6333 130.701 37.9C130.341 38.1733 129.914 38.31 129.421 38.31C129.287 38.31 129.151 38.2967 129.011 38.27C128.877 38.25 128.741 38.2133 128.601 38.16V36.79Z" fill="#39326C"/>
<g clip-path="url(#clip0)">
<path d="M18.6207 23.9464L12.869 21.6423C12.2379 21.3896 11.5219 21.6961 11.2693 22.3268L4.51409 39.1866C4.26061 39.8192 4.33731 40.534 4.71925 41.0984C5.10118 41.663 5.73619 42 6.4177 42H11.3256C12.1684 42 12.9156 41.4945 13.2293 40.712L19.3052 25.5462C19.4265 25.2433 19.4227 24.9046 19.2942 24.6046C19.1659 24.3045 18.9236 24.0678 18.6207 23.9464Z" fill="#514899"/>
<path d="M37.4868 39.1866L30.7316 22.3268C30.4788 21.696 29.7625 21.3897 29.1319 21.6422L23.3802 23.9464C23.0773 24.0677 22.8349 24.3045 22.7066 24.6045C22.5783 24.9044 22.5743 25.2432 22.6956 25.5461L28.7717 40.712C29.0852 41.4944 29.8325 41.9998 30.6752 41.9998H35.5832C36.2647 41.9998 36.8997 41.6629 37.2816 41.0983C37.6636 40.5339 37.7402 39.8193 37.4868 39.1866Z" fill="#39326C"/>
<path d="M21.0003 0L23.5842 16.7589L21.0003 33.7153C11.7051 33.7153 4.14307 26.1533 4.14307 16.8581C4.14307 7.56205 11.7051 0 21.0003 0V0Z" fill="#F95D77"/>
<path d="M37.8577 16.8581C37.8577 26.1533 30.2957 33.7153 21.0005 33.7153V0C30.2957 0 37.8577 7.56205 37.8577 16.8581Z" fill="#D12A86"/>
<path d="M21.0002 5.7417L23.584 16.7588L21.0002 27.9733C14.8711 27.9733 9.88477 22.987 9.88477 16.8579C9.88477 10.7281 14.8711 5.7417 21.0002 5.7417Z" fill="#EDF5FF"/>
<path d="M32.1159 16.8579C32.1159 22.987 27.1295 27.9733 21.0005 27.9733V5.7417C27.1295 5.7417 32.1159 10.7281 32.1159 16.8579Z" fill="#D5E8FE"/>
<path d="M21 11.4834L23.5838 16.7587L21 22.2313C18.0372 22.2313 15.6265 19.8206 15.6265 16.8578C15.6265 13.8941 18.0372 11.4834 21 11.4834Z" fill="#F95D77"/>
<path d="M26.374 16.8578C26.374 19.8206 23.9633 22.2313 21.0005 22.2313V11.4834C23.9633 11.4834 26.374 13.8941 26.374 16.8578Z" fill="#D12A86"/>
</g>
<defs>
<clipPath id="clip0">
<rect width="42.1589" height="42" fill="white" transform="translate(0.000488281)"/>
</clipPath>
</defs>
</svg>
